<svg xmlns="http://www.w3.org/2000/svg" viewBox="0 0 512 512"><path d="M512 304c0 13.3-10.7 24-24 24h-24.6c-3.1 17.2-8.1 33.7-14.8 49.1l34.8 20.1c11.4 6.6 15.3 21.2 8.7 32.6s-21.2 15.3-32.6 8.7l-34.8-20.1c-13.2 17.2-29.1 32.1-47.1 43.7l14.7 35.2c5.3 12.7-.7 27.3-13.4 32.6s-27.3-.7-32.6-13.4l-14.7-35.2c-18.7 4.7-38.3 7.2-58.2 7.2s-39.5-2.5-58.2-7.2l-14.7 35.2c-5.3 12.7-19.9 18.7-32.6 13.4s-18.7-19.9-13.4-32.6l14.7-35.2c-18-11.6-33.9-26.5-47.1-43.7l-34.8 20.1c-11.4 6.6-26 2.7-32.6-8.7s-2.7-26 8.7-32.6l34.8-20.1c-6.7-15.4-11.7-31.9-14.8-49.1H24c-13.3 0-24-10.7-24-24s10.7-24 24-24h24.6c3.1-17.2 8.1-33.7 14.8-49.1l-34.8-20.1c-11.4-6.6-15.3-21.2-8.7-32.6s21.2-15.3 32.6-8.7l34.8 20.1c13.2-17.2 29.1-32.1 47.1-43.7l-14.7-35.2c-5.3-12.7 .7-27.3 13.4-32.6s27.3 .7 32.6 13.4l14.7 35.2c18.7-4.7 38.3-7.2 58.2-7.2s39.5 2.5 58.2 7.2l14.7-35.2c5.3-12.7 19.9-18.7 32.6-13.4s18.7 19.9 13.4 32.6l-14.7 35.2c18 11.6 33.9 26.5 47.1 43.7l34.8-20.1c11.4-6.6 26-2.7 32.6 8.7s2.7 26-8.7 32.6l-34.8 20.1c6.7 15.4 11.7 31.9 14.8 49.1H488c13.3 0 24 10.7 24 24zM256 400c79.5 0 144-64.5 144-144S335.5 112 256 112 112 176.5 112 256s64.5 144 144 144z"/></svg>
