<svg xmlns="http://www.w3.org/2000/svg" viewBox="0 0 640 512"><path d="M524.5 62.6A522.1 522.1 0 0 0 404.1 32l-1.9 3.8c-44.1-6.6-89.1-6.6-133.2 0l-1.9-3.8A522.1 522.1 0 0 0 115.5 62.6C35.6 178.1 9.4 289.5 16.6 400.2c53.7 39.6 106.1 63.7 157.2 79.8l24.2-33.5c-44.2-13.4-86.2-32.7-126.2-59.2 10.7-15.7 21.7-31.2 32.9-46.5 1.2-1.7 2.4-3.4 3.6-5.1 1.2-1.7 2.4-3.4 3.6-5.1 1.2-1.7 2.4-3.4 3.6-5.1 1.2-1.7 2.4-3.4 3.6-5.1 1.2-1.7 2.4-3.4 3.6-5.1 1.2-1.7 2.4-3.4 3.6-5.1 1.2-1.7 2.4-3.4 3.6-5.1 1.2-1.7 2.4-3.4 3.6-5.1 1.2-1.7 2.4-3.4 3.6-5.1 1.2-1.7 2.4-3.4 3.6-5.1 1.2-1.7 2.4-3.4 3.6-5.1 1.2-1.7 2.4-3.4 3.6-5.1 1.2-1.7 2.4-3.4 3.6-5.1 1.2-1.7 2.4-3.4 3.6-5.1 1.2-1.7 2.4-3.4 3.6-5.1 1.2-1.7 2.4-3.4 3.6-5.1 1.2-1.7 2.4-3.4 3.6-5.1 1.2-1.7 2.4-3.4 3.6-5.1 1.2-1.7 2.4-3.4 3.6-5.1 1.2-1.7 2.4-3.4 3.6-5.1 1.2-1.7 2.4-3.4 3.6-5.1 1.2-1.7 2.4-3.4 3.6-5.1 1.2-1.7 2.4-3.4 3.6-5.1 1.2-1.7 2.4-3.4 3.6-5.1 1.2-1.7 2.4-3.4 3.6-5.1 1.2-1.7 2.4-3.4 3.6-5.1 1.2-1.7 2.4-3.4 3.6-5.1 1.2-1.7 2.4-3.4 3.6-5.1 1.2-1.7 2.4-3.4 3.6-5.1 1.2-1.7 2.4-3.4 3.6-5.1 1.2-1.7 2.4-3.4 3.6-5.1 1.2-1.7 2.4-3.4 3.6-5.1 1.2-1.7 2.4-3.4 3.6-5.1 1.2-1.7 2.4-3.4 3.6-5.1 1.2-1.7 2.4-3.4 3.6-5.1 1.2-1.7 2.4-3.4 3.6-5.1 1.2-1.7 2.4-3.4 3.6-5.1 1.2-1.7 2.4-3.4 3.6-5.1 1.2-1.7 2.4-3.4 3.6-5.1 1.2-1.7 2.4-3.4 3.6-5.1 1.2-1.7 2.4-3.4 3.6-5.1 1.2-1.7 2.4-3.4 3.6-5.1 1.2-1.7 2.4-3.4 3.6-5.1 1.2-1.7 2.4-3.4 3.6-5.1 1.2-1.7 2.4-3.4 3.6-5.1 1.2-1.7 2.4-3.4 3.6-5.1 1.2-1.7 2.4-3.4 3.6-5.1 1.2-1.7 2.4-3.4 3.6-5.1 1.2-1.7 2.4-3.4 3.6-5.1 1.2-1.7 2.4-3.4 3.6-5.1 1.2-1.7 2.4-3.4 3.6-5.1 1.2-1.7 2.4-3.4 3.6-5.1 1.2-1.7 2.4-3.4 3.6-5.1 1.2-1.7 2.4-3.4 3.6-5.1 1.2-1.7 2.4-3.4 3.6-5.1 1.2-1.7 2.4-3.4 3.6-5.1 1.2-1.7 2.4-3.4 3.6-5.1 1.2-1.7 2.4-3.4 3.6-5.1 1.2-1.7 2.4-3.4 3.6-5.1 1.2-1.7 2.4-3.4 3.6-5.1 1.2-1.7 2.4-3.4 3.6-5.1 1.2-1.7 2.4-3.4 3.6-5.1 1.2-1.7 2.4-3.4 3.6-5.1 1.2-1.7 2.4-3.4 3.6-5.1 1.2-1.7 2.4-3.4 3.6-5.1 1.2-1.7 2.4-3.4 3.6-5.1 1.2-1.7 2.4-3.4 3.6-5.1 1.2-1.7 2.4-3.4 3.6-5.1 1.2-1.7 2.4-3.4 3.6-5.1 1.2-1.7 2.4-3.4 3.6-5.1 1.2-1.7 2.4-3.4 3.6-5.1 1.2-1.7 2.4-3.4 3.6-5.1 1.2-1.7 2.4-3.4 3.6-5.1 1.2-1.7 2.4-3.4 3.6-5.1 1.2-1.7 2.4-3.4 3.6-5.1 1.2-1.7 2.4-3.4 3.6-5.1 1.2-1.7 2.4-3.4 3.6-5.1 1.2-1.7 2.4-3.4 3.6-5.1 1.2-1.7 2.4-3.4 3.6-5.1 1.2-1.7 2.4-3.4 3.6-5.1 1.2-1.7 2.4-3.4 3.6-5.1 1.2-1.7 2.4-3.4 3.6-5.1 1.2-1.7 2.4-3.4 3.6-5.1 1.2-1.7 2.4-3.4 3.6-5.1 1.2-1.7 2.4-3.4 3.6-5.1 1.2-1.7 2.4-3.4 3.6-5.1 1.2-1.7 2.4-3.4 3.6-5.1 1.2-1.7 2.4-3.4 3.6-5.1 1.2-1.7 2.4-3.4 3.6-5.1 1.2-1.7 2.4-3.4 3.6-5.1 1.2-1.7 2.4-3.4 3.6-5.1 1.2-1.7 2.4-3.4 3.6-5.1 1.2-1.7 2.4-3.4 3.6-5.1 1.2-1.7 2.4-3.4 3.6-5.1 1.2-1.7 2.4-3.4 3.6-5.1 1.2-1.7 2.4-3.4 3.6-5.1 1.2-1.7 2.4-3.4 3.6-5.1 1.2-1.7 2.4-3.4 3.6-5.1 1.2-1.7 2.4-3.4 3.6-5.1 1.2-1.7 2.4-3.4 3.6-5.1 1.2-1.7 2.4-3.4 3.6-5.1 1.2-1.7 2.4-3.4 3.6-5.1 1.2-1.7 2.4-3.4 3.6-5.1 1.2-1.7 2.4-3.4 3.6-5.1 1.2-1.7 2.4-3.4 3.6-5.1 1.2-1.7 2.4-3.4 3.6-5.1 1.2-1.7 2.4-3.4 3.6-5.1 1.2-1.7 2.4-3.4 3.6-5.1 1.2-1.7 2.4-3.4 3.6-5.1 1.2-1.7 2.4-3.4 3.6-5.1 1.2-1.7 2.4-3.4 3.6-5.1 1.2-1.7 2.4-3.4 3.6-5.1 1.2-1.7 2.4-3.4 3.6-5.1 1.2-1.7 2.4-3.4 3.6-5.1 1.2-1.7 2.4-3.4 3.6-5.1 1.2-1.7 2.4-3.4 3.6-5.1 1.2-1.7 2.4-3.4 3.6-5.1 1.2-1.7 2.4-3.4 3.6-5.1 1.2-1.7 2.4-3.4 3.6-5.1 1.2-1.7 2.4-3.4 3.6-5.1 1.2-1.7 2.4-3.4 3.6-5.1 1.2-1.7 2.4-3.4 3.6-5.1 1.2-1.7 2.4-3.4 3.6-5.1 1.2-1.7 2.4-3.4 3.6-5.1 1.2-1.7 2.4-3.4 3.6-5.1 1.2-1.7 2.4-3.4 3.6-5.1 1.2-1.7 2.4-3.4 3.6-5.1 1.2-1.7 2.4-3.4 3.6-5.1 1.2-1.7 2.4-3.4 3.6-5.1 1.2-1.7 2.4-3.4 3.6-5.1 1.2-1.7 2.4-3.4 3.6-5.1 1.2-1.7 2.4-3.4 3.6-5.1 1.2-1.7 2.4-3.4 3.6-5.1z"/></svg>
